<svg width="132" height="28" viewBox="0 0 132 28" fill="none" xmlns="http://www.w3.org/2000/svg">
<path d="M21.6782 2.11719V27H15.6968L6.89551 11.5166V27H0.896973V2.11719H6.89551L15.6968 17.6006V2.11719H21.6782ZM24.481 17.9424V17.5835C24.481 16.2277 24.6746 14.9801 25.062 13.8408C25.4494 12.6901 26.019 11.6932 26.771 10.8501C27.5229 10.007 28.4515 9.35189 29.5566 8.88477C30.6618 8.40625 31.9378 8.16699 33.3848 8.16699C34.8431 8.16699 36.1248 8.40625 37.23 8.88477C38.3465 9.35189 39.2808 10.007 40.0327 10.8501C40.7847 11.6932 41.3543 12.6901 41.7417 13.8408C42.1291 14.9801 42.3228 16.2277 42.3228 17.5835V17.9424C42.3228 19.2868 42.1291 20.5343 41.7417 21.6851C41.3543 22.8244 40.7847 23.8213 40.0327 24.6758C39.2808 25.5189 38.3522 26.174 37.2471 26.6411C36.1419 27.1082 34.8659 27.3418 33.4189 27.3418C31.972 27.3418 30.6903 27.1082 29.5737 26.6411C28.4572 26.174 27.5229 25.5189 26.771 24.6758C26.019 23.8213 25.4494 22.8244 25.062 21.6851C24.6746 20.5343 24.481 19.2868 24.481 17.9424ZM30.2402 17.5835V17.9424C30.2402 18.6374 30.2915 19.2868 30.394 19.8906C30.4966 20.4945 30.6675 21.0243 30.9067 21.48C31.146 21.9243 31.4707 22.2718 31.8809 22.5225C32.291 22.7731 32.8037 22.8984 33.4189 22.8984C34.0228 22.8984 34.5241 22.7731 34.9229 22.5225C35.333 22.2718 35.6577 21.9243 35.897 21.48C36.1362 21.0243 36.3071 20.4945 36.4097 19.8906C36.5122 19.2868 36.5635 18.6374 36.5635 17.9424V17.5835C36.5635 16.9113 36.5122 16.279 36.4097 15.6865C36.3071 15.0827 36.1362 14.5529 35.897 14.0972C35.6577 13.63 35.333 13.2655 34.9229 13.0034C34.5127 12.7414 34 12.6104 33.3848 12.6104C32.7809 12.6104 32.2739 12.7414 31.8638 13.0034C31.465 13.2655 31.146 13.63 30.9067 14.0972C30.6675 14.5529 30.4966 15.0827 30.394 15.6865C30.2915 16.279 30.2402 16.9113 30.2402 17.5835ZM54.6274 8.50879V12.5078H43.4849V8.50879H54.6274ZM45.8262 3.91162H51.5854V20.9673C51.5854 21.4572 51.6424 21.8389 51.7563 22.1123C51.8703 22.3743 52.064 22.5623 52.3374 22.6763C52.6222 22.7788 52.9982 22.8301 53.4653 22.8301C53.7957 22.8301 54.0692 22.8244 54.2856 22.813C54.5021 22.7902 54.7072 22.7617 54.9009 22.7275V26.8462C54.411 27.0057 53.8983 27.1253 53.3628 27.2051C52.8273 27.2962 52.2576 27.3418 51.6538 27.3418C50.4233 27.3418 49.3695 27.1481 48.4922 26.7607C47.6263 26.3734 46.9655 25.7638 46.5098 24.9321C46.054 24.1004 45.8262 23.0181 45.8262 21.6851V3.91162ZM62.5571 0.75V27H56.7979V0.75H62.5571ZM61.8735 17.1221L60.5234 17.1562C60.5234 15.8574 60.6829 14.6611 61.002 13.5674C61.321 12.4736 61.7767 11.5223 62.3691 10.7134C62.9616 9.90446 63.6737 9.27783 64.5054 8.8335C65.3371 8.38916 66.2599 8.16699 67.2739 8.16699C68.1854 8.16699 69.0171 8.29801 69.769 8.56006C70.5324 8.8221 71.1875 9.24365 71.7344 9.82471C72.2926 10.4058 72.7199 11.1634 73.0161 12.0977C73.3237 13.0319 73.4775 14.1712 73.4775 15.5156V27H67.6841V15.4814C67.6841 14.7295 67.5758 14.1484 67.3594 13.7383C67.1543 13.3167 66.8581 13.0262 66.4707 12.8667C66.0833 12.6958 65.6105 12.6104 65.0522 12.6104C64.38 12.6104 63.8332 12.7243 63.4116 12.9521C62.9901 13.18 62.6654 13.499 62.4375 13.9092C62.221 14.3079 62.0729 14.7808 61.9932 15.3276C61.9134 15.8745 61.8735 16.4727 61.8735 17.1221ZM82.7573 8.50879V27H76.981V8.50879H82.7573ZM76.6392 3.74072C76.6392 2.92041 76.9354 2.24821 77.5278 1.72412C78.1203 1.20003 78.8893 0.937988 79.835 0.937988C80.7806 0.937988 81.5496 1.20003 82.1421 1.72412C82.7345 2.24821 83.0308 2.92041 83.0308 3.74072C83.0308 4.56104 82.7345 5.23324 82.1421 5.75732C81.5496 6.28141 80.7806 6.54346 79.835 6.54346C78.8893 6.54346 78.1203 6.28141 77.5278 5.75732C76.9354 5.23324 76.6392 4.56104 76.6392 3.74072ZM91.9688 12.4565V27H86.2095V8.50879H91.6099L91.9688 12.4565ZM91.2852 17.1221L89.9351 17.1562C89.9351 15.7435 90.106 14.4845 90.4478 13.3794C90.7896 12.2629 91.2738 11.3172 91.9004 10.5425C92.527 9.76774 93.2733 9.18099 94.1392 8.78223C95.0164 8.37207 95.9906 8.16699 97.0615 8.16699C97.916 8.16699 98.6965 8.29232 99.4028 8.54297C100.121 8.79362 100.736 9.19808 101.249 9.75635C101.773 10.3146 102.171 11.0552 102.445 11.978C102.73 12.8895 102.872 14.0174 102.872 15.3618V27H97.0786V15.3447C97.0786 14.6042 96.9761 14.0402 96.771 13.6528C96.5659 13.2541 96.2697 12.9806 95.8823 12.8325C95.495 12.6844 95.0221 12.6104 94.4639 12.6104C93.8714 12.6104 93.3701 12.7243 92.96 12.9521C92.5498 13.18 92.2194 13.499 91.9688 13.9092C91.7295 14.3079 91.5529 14.7808 91.439 15.3276C91.3364 15.8745 91.2852 16.4727 91.2852 17.1221ZM111.878 0.73291V27H106.119V0.73291H111.878ZM123.705 8.50879L115.672 17.9253L111.468 22.1294L108.956 18.4722L112.459 13.9092L116.8 8.50879H123.705ZM117.535 27L112.596 18.5747L116.852 15.5498L124.132 27H117.535Z" fill="#D3F13A"/>
<path d="M125.584 24.2998C125.584 23.4795 125.881 22.7959 126.473 22.249C127.066 21.6908 127.829 21.4116 128.763 21.4116C129.709 21.4116 130.472 21.6908 131.053 22.249C131.646 22.7959 131.942 23.4795 131.942 24.2998C131.942 25.1201 131.646 25.8094 131.053 26.3677C130.472 26.9146 129.709 27.188 128.763 27.188C127.829 27.188 127.066 26.9146 126.473 26.3677C125.881 25.8094 125.584 25.1201 125.584 24.2998Z" fill="white"/>
</svg>
